<svg width="450" height="46" viewBox="0 0 450 46" fill="none" xmlns="http://www.w3.org/2000/svg">
<path d="M50.4901 44.1432C50.6832 44.1432 50.7798 44.2841 50.7798 44.5662C50.7798 44.8483 50.6832 44.9893 50.4901 44.9893C49.6209 44.9893 48.2204 44.9422 46.2887 44.8483C44.4533 44.7542 43.1014 44.7071 42.2319 44.7071C41.218 44.7071 39.8899 44.7542 38.2478 44.8483C36.7026 44.9422 35.5434 44.9893 34.7708 44.9893C34.5776 44.9893 34.4809 44.8483 34.4809 44.5662C34.4809 44.2841 34.5776 44.1432 34.7708 44.1432C36.7509 44.1432 38.1754 43.9786 39.0447 43.6494C39.9139 43.2735 40.3485 42.6622 40.3485 41.8161C40.3485 41.1581 40.0831 40.241 39.5516 39.0658L32.7425 24.7512H15.502L10.5761 36.3157C9.9 37.9142 9.56197 39.2306 9.56197 40.2647C9.56197 41.6282 10.1415 42.6151 11.3005 43.2264C12.4595 43.8374 14.2705 44.1432 16.7334 44.1432C16.9749 44.1432 17.0956 44.2841 17.0956 44.5662C17.0956 44.8483 16.9749 44.9893 16.7334 44.9893C15.8642 44.9893 14.6086 44.9422 12.9666 44.8483C11.1315 44.7542 9.53782 44.7071 8.18562 44.7071C6.97831 44.7071 5.55366 44.7542 3.91171 44.8483C2.46293 44.9422 1.27976 44.9893 0.362197 44.9893C0.120732 44.9893 0 44.8483 0 44.5662C0 44.2841 0.120732 44.1432 0.362197 44.1432C1.71439 44.1432 2.84928 43.9079 3.76683 43.4378C4.7327 42.9677 5.62612 42.1214 6.44708 40.8994C7.31636 39.6771 8.23391 37.9376 9.19976 35.681L24.3394 0.211541C24.4362 0.0705141 24.5809 0 24.7741 0C25.0156 0 25.1606 0.0705141 25.2088 0.211541L42.0149 35.3285C43.1254 37.726 44.1156 39.5596 44.9846 40.8286C45.8541 42.0512 46.699 42.9209 47.5199 43.4378C48.3894 43.9079 49.3796 44.1432 50.4901 44.1432ZM16.0815 23.4821H32.0905L23.6152 5.78245L16.0815 23.4821ZM101.432 0.916703C101.577 0.916703 101.65 1.05773 101.65 1.33981C101.65 1.62186 101.577 1.76289 101.432 1.76289C99.3559 1.76289 97.8828 2.25651 97.0133 3.24373C96.1927 4.23095 95.7821 5.92312 95.7821 8.32089V45.7649C95.7821 45.859 95.6614 45.9297 95.4198 45.9765C95.1785 46.0236 95.0095 45.9999 94.9129 45.906L62.1704 6.69897L60.9389 5.35924V37.6555C60.9389 40.0533 61.3492 41.7457 62.1704 42.7327C62.9913 43.6729 64.4158 44.1432 66.4442 44.1432C66.5889 44.1432 66.6615 44.2841 66.6615 44.5662C66.6615 44.8483 66.5889 44.9893 66.4442 44.9893C65.2853 44.9893 64.3918 44.9658 63.7639 44.9188L60.287 44.8483L56.7374 44.9188C56.1095 44.9658 55.168 44.9893 53.9122 44.9893C53.8158 44.9893 53.7675 44.8483 53.7675 44.5662C53.7675 44.2841 53.8158 44.1432 53.9122 44.1432C55.9889 44.1432 57.4134 43.6729 58.1862 42.7327C58.9588 41.7925 59.3451 40.1001 59.3451 37.6555V3.87838C57.6547 2.46805 55.9163 1.76289 54.1297 1.76289C53.9845 1.76289 53.9122 1.62186 53.9122 1.33981C53.9122 1.05773 53.9845 0.916703 54.1297 0.916703L56.7374 0.987217C57.2687 1.03423 58.017 1.05773 58.9829 1.05773C59.804 1.05773 60.4802 1.03423 61.0112 0.987217C61.5425 0.940208 61.9528 0.916703 62.2428 0.916703C62.581 0.916703 62.8464 1.01072 63.0396 1.19876C63.281 1.33981 63.5469 1.66887 63.8365 2.186C64.3675 3.03219 64.9473 3.83137 65.575 4.58351L94.1883 39.207V8.32089C94.1883 5.92312 93.8023 4.23095 93.0292 3.24373C92.2566 2.25651 90.8561 1.76289 88.828 1.76289C88.7313 1.76289 88.683 1.62186 88.683 1.33981C88.683 1.05773 88.7313 0.916703 88.828 0.916703L91.5806 0.987217C93.0292 1.08124 94.1883 1.12824 95.0578 1.12824C95.8787 1.12824 97.0619 1.08124 98.6071 0.987217L101.432 0.916703ZM153.923 0.916703C154.067 0.916703 154.14 1.05773 154.14 1.33981C154.14 1.62186 154.067 1.76289 153.923 1.76289C151.846 1.76289 150.373 2.25651 149.504 3.24373C148.683 4.23095 148.272 5.92312 148.272 8.32089V45.7649C148.272 45.859 148.151 45.9297 147.91 45.9765C147.668 46.0236 147.499 45.9999 147.403 45.906L114.66 6.69897L113.429 5.35924V37.6555C113.429 40.0533 113.839 41.7457 114.66 42.7327C115.481 43.6729 116.906 44.1432 118.934 44.1432C119.079 44.1432 119.152 44.2841 119.152 44.5662C119.152 44.8483 119.079 44.9893 118.934 44.9893C117.775 44.9893 116.882 44.9658 116.254 44.9188L112.777 44.8483L109.227 44.9188C108.6 44.9658 107.658 44.9893 106.402 44.9893C106.306 44.9893 106.257 44.8483 106.257 44.5662C106.257 44.2841 106.306 44.1432 106.402 44.1432C108.479 44.1432 109.904 43.6729 110.676 42.7327C111.449 41.7925 111.835 40.1001 111.835 37.6555V3.87838C110.145 2.46805 108.406 1.76289 106.619 1.76289C106.475 1.76289 106.402 1.62186 106.402 1.33981C106.402 1.05773 106.475 0.916703 106.619 0.916703L109.227 0.987217C109.759 1.03423 110.507 1.05773 111.473 1.05773C112.294 1.05773 112.97 1.03423 113.501 0.987217C114.033 0.940208 114.443 0.916703 114.733 0.916703C115.071 0.916703 115.337 1.01072 115.53 1.19876C115.771 1.33981 116.037 1.66887 116.327 2.186C116.858 3.03219 117.437 3.83137 118.065 4.58351L146.678 39.207V8.32089C146.678 5.92312 146.292 4.23095 145.519 3.24373C144.747 2.25651 143.346 1.76289 141.318 1.76289C141.221 1.76289 141.173 1.62186 141.173 1.33981C141.173 1.05773 141.221 0.916703 141.318 0.916703L144.071 0.987217C145.519 1.08124 146.678 1.12824 147.548 1.12824C148.369 1.12824 149.552 1.08124 151.097 0.987217L153.923 0.916703ZM206.05 44.1432C206.243 44.1432 206.34 44.2841 206.34 44.5662C206.34 44.8483 206.243 44.9893 206.05 44.9893C205.181 44.9893 203.78 44.9422 201.849 44.8483C200.014 44.7542 198.661 44.7071 197.792 44.7071C196.778 44.7071 195.45 44.7542 193.808 44.8483C192.263 44.9422 191.104 44.9893 190.331 44.9893C190.138 44.9893 190.041 44.8483 190.041 44.5662C190.041 44.2841 190.138 44.1432 190.331 44.1432C192.311 44.1432 193.735 43.9786 194.605 43.6494C195.474 43.2735 195.909 42.6622 195.909 41.8161C195.909 41.1581 195.643 40.241 195.112 39.0658L188.303 24.7512H171.062L166.136 36.3157C165.46 37.9142 165.122 39.2306 165.122 40.2647C165.122 41.6282 165.702 42.6151 166.861 43.2264C168.019 43.8374 169.831 44.1432 172.294 44.1432C172.535 44.1432 172.656 44.2841 172.656 44.5662C172.656 44.8483 172.535 44.9893 172.294 44.9893C171.424 44.9893 170.169 44.9422 168.527 44.8483C166.692 44.7542 165.098 44.7071 163.746 44.7071C162.538 44.7071 161.114 44.7542 159.472 44.8483C158.023 44.9422 156.84 44.9893 155.922 44.9893C155.681 44.9893 155.56 44.8483 155.56 44.5662C155.56 44.2841 155.681 44.1432 155.922 44.1432C157.274 44.1432 158.41 43.9079 159.327 43.4378C160.293 42.9677 161.186 42.1214 162.007 40.8994C162.877 39.6771 163.794 37.9376 164.76 35.681L179.9 0.211541C179.996 0.0705141 180.141 0 180.334 0C180.576 0 180.721 0.0705141 180.769 0.211541L197.575 35.3285C198.685 37.726 199.676 39.5596 200.545 40.8286C201.414 42.0512 202.259 42.9209 203.08 43.4378C203.949 43.9079 204.94 44.1432 206.05 44.1432ZM171.642 23.4821H187.651L179.176 5.78245L171.642 23.4821ZM236.809 38.9956C236.809 40.4997 237.027 41.6045 237.461 42.3096C237.896 42.9677 238.717 43.4378 239.924 43.7199C241.18 44.002 243.16 44.1432 245.864 44.1432C246.009 44.1432 246.081 44.2841 246.081 44.5662C246.081 44.8483 246.009 44.9893 245.864 44.9893C243.884 44.9893 242.339 44.9658 241.228 44.9188L234.926 44.8483L230.145 44.9188C229.276 44.9658 228.068 44.9893 226.523 44.9893C226.426 44.9893 226.378 44.8483 226.378 44.5662C226.378 44.2841 226.426 44.1432 226.523 44.1432C228.406 44.1432 229.783 44.0257 230.652 43.7904C231.569 43.5553 232.173 43.1089 232.463 42.4508C232.801 41.7457 232.97 40.6877 232.97 39.2774V6.62851C232.97 5.21811 232.801 4.18399 232.463 3.52581C232.173 2.86766 231.569 2.42105 230.652 2.186C229.783 1.90395 228.406 1.76289 226.523 1.76289C226.426 1.76289 226.378 1.62186 226.378 1.33981C226.378 1.05773 226.426 0.916703 226.523 0.916703L230.072 0.987217C232.101 1.08124 233.694 1.12824 234.854 1.12824C236.012 1.12824 237.34 1.05773 238.838 0.916703C242.604 0.775676 244.657 0.705163 244.995 0.705163C249.244 0.705163 252.698 1.66887 255.353 3.59632C258.009 5.47669 259.337 8.36795 259.337 12.2696C259.337 15.4196 258.54 18.0758 256.947 20.2383C255.353 22.3537 253.326 23.9285 250.862 24.9626C248.448 25.9969 245.936 26.514 243.329 26.514C241.88 26.514 240.697 26.3965 239.779 26.1615C239.634 26.1615 239.562 26.0439 239.562 25.8089C239.562 25.6677 239.586 25.5268 239.634 25.3858C239.731 25.2449 239.827 25.1976 239.924 25.2449C240.697 25.4327 241.566 25.5268 242.532 25.5268C245.961 25.5268 248.858 24.5161 251.224 22.4946C253.64 20.4733 254.847 17.535 254.847 13.6801C254.847 11.1885 254.338 9.04943 253.326 7.26319C252.311 5.42988 250.911 4.04291 249.124 3.1027C247.385 2.11548 245.454 1.62186 243.329 1.62186C241.349 1.62186 239.948 1.71588 239.127 1.90392C238.306 2.09198 237.703 2.53857 237.316 3.24373C236.978 3.90188 236.809 5.07724 236.809 6.76944V38.9956ZM296.5 34.6941C296.5 34.5529 296.646 34.5058 296.935 34.5529C297.226 34.5529 297.37 34.6233 297.37 34.7645C296.935 37.726 296.72 40.7818 296.72 43.9315C296.72 44.3075 296.621 44.5896 296.429 44.7776C296.285 44.9188 295.994 44.9893 295.559 44.9893H265.644C265.545 44.9893 265.497 44.8483 265.497 44.5662C265.497 44.2841 265.545 44.1432 265.644 44.1432C267.526 44.1432 268.905 44.0257 269.77 43.7904C270.688 43.5553 271.293 43.1089 271.581 42.4508C271.923 41.7457 272.09 40.6877 272.09 39.2774V6.62851C272.09 5.21811 271.923 4.18399 271.581 3.52581C271.293 2.86766 270.688 2.42105 269.77 2.186C268.905 1.90395 267.526 1.76289 265.644 1.76289C265.545 1.76289 265.497 1.62186 265.497 1.33981C265.497 1.05773 265.545 0.916703 265.644 0.916703H294.329C294.764 0.916703 294.979 1.12824 294.979 1.55135L295.124 10.084C295.124 10.2247 294.979 10.2954 294.691 10.2954C294.451 10.2954 294.329 10.2247 294.329 10.084C294.329 7.68622 293.676 5.78245 292.374 4.37207C291.068 2.96168 289.353 2.25651 287.231 2.25651H282.232C280.398 2.25651 279.044 2.37404 278.174 2.60908C277.304 2.84415 276.702 3.29074 276.363 3.94889C276.074 4.60712 275.93 5.64127 275.93 7.05154V21.3664H285.49C287.711 21.3664 289.257 21.0139 290.127 20.3087C290.997 19.5563 291.433 18.2872 291.433 16.5007C291.433 16.4068 291.577 16.3597 291.868 16.3597C292.156 16.3597 292.3 16.4068 292.3 16.5007L292.227 22.0716C292.227 23.4348 292.252 24.4454 292.3 25.1037L292.374 28.418C292.374 28.5119 292.227 28.559 291.939 28.559C291.648 28.559 291.503 28.5119 291.503 28.418C291.503 26.3026 291.043 24.8216 290.127 23.9753C289.209 23.1293 287.59 22.7062 285.273 22.7062H275.93V38.9956C275.93 40.3586 276.074 41.3695 276.363 42.0275C276.702 42.6388 277.281 43.0618 278.101 43.2969C278.971 43.5319 280.347 43.6494 282.232 43.6494H288.895C290.828 43.6494 292.47 42.8268 293.823 41.1812C295.222 39.5359 296.115 37.3734 296.5 34.6941ZM347.08 44.1432C347.224 44.1432 347.295 44.2841 347.295 44.5662C347.295 44.8483 347.224 44.9893 347.08 44.9893H338.965C337.275 44.9893 336.26 44.8951 335.924 44.7071C335.585 44.5192 334.692 43.4378 333.242 41.4636C331.843 39.4888 330.128 37.2559 328.099 34.7645L316.581 20.8727L314.046 23.2702V39.2774C314.046 40.7348 314.191 41.7925 314.481 42.4508C314.818 43.1089 315.423 43.5553 316.293 43.7904C317.163 44.0257 318.562 44.1432 320.495 44.1432C320.591 44.1432 320.639 44.2841 320.639 44.5662C320.639 44.8483 320.591 44.9893 320.495 44.9893C319.045 44.9893 317.887 44.9658 317.016 44.9188L312.091 44.8483L307.312 44.9188C306.442 44.9658 305.235 44.9893 303.689 44.9893C303.591 44.9893 303.545 44.8483 303.545 44.5662C303.545 44.2841 303.591 44.1432 303.689 44.1432C305.572 44.1432 306.948 44.0257 307.818 43.7904C308.734 43.5553 309.361 43.1089 309.7 42.4508C310.039 41.7457 310.209 40.6877 310.209 39.2774V6.62851C310.209 5.21811 310.039 4.18399 309.7 3.52581C309.409 2.86766 308.807 2.42105 307.889 2.186C307.021 1.90395 305.642 1.76289 303.76 1.76289C303.664 1.76289 303.616 1.62186 303.616 1.33981C303.616 1.05773 303.664 0.916703 303.76 0.916703L307.312 0.987217C309.338 1.08124 310.932 1.12824 312.091 1.12824C313.396 1.12824 315.061 1.08124 317.09 0.987217L320.495 0.916703C320.591 0.916703 320.639 1.05773 320.639 1.33981C320.639 1.62186 320.591 1.76289 320.495 1.76289C318.61 1.76289 317.209 1.90395 316.293 2.186C315.423 2.46805 314.818 2.96168 314.481 3.66684C314.191 4.32512 314.046 5.35924 314.046 6.76944V21.6485L329.984 6.20548C331.626 4.60712 332.445 3.5023 332.445 2.89116C332.445 2.46805 332.109 2.186 331.431 2.04497C330.804 1.85691 329.741 1.76289 328.243 1.76289C328.15 1.76289 328.099 1.62186 328.099 1.33981C328.099 1.05773 328.15 0.916703 328.243 0.916703L331.287 0.987217C333.123 1.08124 334.836 1.12824 336.43 1.12824C337.927 1.12824 339.498 1.08124 341.14 0.987217L343.673 0.916703C343.819 0.916703 343.893 1.05773 343.893 1.33981C343.893 1.62186 343.819 1.76289 343.673 1.76289C341.694 1.76289 339.643 2.13899 337.518 2.89116C335.441 3.59632 333.485 4.84219 331.651 6.62851L319.334 18.3342L329.693 31.0269C333.364 35.4931 336.167 38.643 338.097 40.4761C340.027 42.3096 341.502 43.391 342.516 43.7199C343.531 44.002 345.051 44.1432 347.08 44.1432ZM389.56 8.32089C389.56 6.0643 389.049 4.41903 388.037 3.38476C387.071 2.30352 385.525 1.76289 383.4 1.76289C383.256 1.76289 383.183 1.62186 383.183 1.33981C383.183 1.05773 383.256 0.916703 383.4 0.916703L386.444 0.987217C388.085 1.08124 389.414 1.12824 390.425 1.12824C391.296 1.12824 392.457 1.08124 393.906 0.987217L396.874 0.916703C396.973 0.916703 397.018 1.05773 397.018 1.33981C397.018 1.62186 396.973 1.76289 396.874 1.76289C394.896 1.76289 393.446 2.30352 392.528 3.38476C391.609 4.41903 391.151 6.0643 391.151 8.32089V28.4885C391.151 33.9889 389.631 38.2668 386.588 41.3224C383.547 44.3782 379.441 45.906 374.273 45.906C370.701 45.906 367.584 45.2243 364.93 43.8611C362.274 42.4508 360.22 40.4761 358.773 37.9376C357.323 35.3992 356.597 32.4609 356.597 29.1232V6.62851C356.597 5.21811 356.43 4.18399 356.091 3.52581C355.803 2.86766 355.198 2.42105 354.28 2.186C353.41 1.90395 352.036 1.76289 350.151 1.76289C350.055 1.76289 350.007 1.62186 350.007 1.33981C350.007 1.05773 350.055 0.916703 350.151 0.916703L353.63 0.987217C355.656 1.08124 357.275 1.12824 358.482 1.12824C359.785 1.12824 361.452 1.08124 363.481 0.987217L366.812 0.916703C366.957 0.916703 367.028 1.05773 367.028 1.33981C367.028 1.62186 366.957 1.76289 366.812 1.76289C364.93 1.76289 363.552 1.90395 362.684 2.186C361.814 2.46805 361.212 2.96168 360.873 3.66684C360.584 4.32512 360.437 5.35924 360.437 6.76944V26.6552C360.437 32.1554 361.768 36.4098 364.422 39.4184C367.078 42.3801 370.797 43.8611 375.578 43.8611C379.972 43.8611 383.4 42.5213 385.864 39.8417C388.328 37.115 389.56 33.3542 389.56 28.559V8.32089ZM449.268 0.916703C449.41 0.916703 449.486 1.05773 449.486 1.33981C449.486 1.62186 449.41 1.76289 449.268 1.76289C447.191 1.76289 445.719 2.25651 444.849 3.24373C444.029 4.23095 443.617 5.92312 443.617 8.32089V45.7649C443.617 45.859 443.495 45.9297 443.255 45.9765C443.015 46.0236 442.845 45.9999 442.746 45.906L410.003 6.69897L408.774 5.35924V37.6555C408.774 40.0533 409.184 41.7457 410.003 42.7327C410.828 43.6729 412.25 44.1432 414.281 44.1432C414.425 44.1432 414.496 44.2841 414.496 44.5662C414.496 44.8483 414.425 44.9893 414.281 44.9893C413.12 44.9893 412.227 44.9658 411.6 44.9188L408.121 44.8483L404.572 44.9188C403.945 44.9658 403.004 44.9893 401.749 44.9893C401.65 44.9893 401.605 44.8483 401.605 44.5662C401.605 44.2841 401.65 44.1432 401.749 44.1432C403.823 44.1432 405.25 43.6729 406.022 42.7327C406.793 41.7925 407.18 40.1001 407.18 37.6555V3.87838C405.488 2.46805 403.752 1.76289 401.964 1.76289C401.82 1.76289 401.749 1.62186 401.749 1.33981C401.749 1.05773 401.82 0.916703 401.964 0.916703L404.572 0.987217C405.103 1.03423 405.852 1.05773 406.818 1.05773C407.641 1.05773 408.314 1.03423 408.847 0.987217C409.376 0.940208 409.788 0.916703 410.079 0.916703C410.416 0.916703 410.681 1.01072 410.874 1.19876C411.117 1.33981 411.38 1.66887 411.671 2.186C412.202 3.03219 412.784 3.83137 413.411 4.58351L442.025 39.207V8.32089C442.025 5.92312 441.638 4.23095 440.864 3.24373C440.093 2.25651 438.691 1.76289 436.662 1.76289C436.566 1.76289 436.518 1.62186 436.518 1.33981C436.518 1.05773 436.566 0.916703 436.662 0.916703L439.415 0.987217C440.864 1.08124 442.025 1.12824 442.893 1.12824C443.715 1.12824 444.899 1.08124 446.442 0.987217L449.268 0.916703Z" fill="black"/>
</svg>
